<?xml version="1.0" encoding="utf-8"?>
<!-- Generator: Adobe Illustrator 21.0.0, SVG Export Plug-In . SVG Version: 6.00 Build 0)  -->
<svg version="1.1" id="Layer_1" xmlns="http://www.w3.org/2000/svg" xmlns:xlink="http://www.w3.org/1999/xlink" x="0px" y="0px"
	 viewBox="0 0 480 480" style="enable-background:new 0 0 480 480;" xml:space="preserve">
<style type="text/css">
	.st0{fill:none;stroke:#CCFF00;stroke-miterlimit:10;}
</style>
<polygon class="st0" points="239.7,153 247,112 267.1,77.5 294.9,53.1 329.7,38.3 362.8,35 393.3,40.3 421.8,53.6 447.3,75.8 
	467.4,108.4 475.1,137.4 475.7,158.1 465,184.2 436.2,227.3 357.7,321.2 238.5,446.3 123.3,324.2 46.9,232.6 12.9,181.5 4,159.7 
	4,139.2 12.3,107.6 28.6,79.8 50.3,58.7 77.8,43.2 104.5,36.1 136.9,35.9 173,46.7 205.3,69.8 227.8,101.4 235.9,123.3 "/>
</svg>
